<svg width="199" height="64" viewBox="0 0 199 64" fill="none" xmlns="http://www.w3.org/2000/svg">
<g clip-path="url(#clip0)">
<path d="M89.3872 40.4979L78.1299 23.1573H82.2961L91.4262 37.3855L100.467 23.1573H104.456L93.1987 40.4979V52.0584H89.3872V40.4979Z" fill="white"/>
<path d="M107.553 23.1573H116.586C127.969 23.1573 132.846 29.6689 132.846 37.6078C132.846 45.5466 127.878 52.0584 116.586 52.0584H107.553V23.1573ZM116.677 48.7581C126.162 48.7581 128.872 43.4952 128.872 37.697C128.872 31.899 126.162 26.6361 116.677 26.6361H111.437V48.7581H116.677Z" fill="white"/>
<path d="M136.461 41.9497C136.461 35.8402 140.689 30.8986 146.446 30.8986C149.865 30.8986 152.924 32.6057 154.723 35.3011L154.903 31.5276H158.141V52.4618H154.903L154.723 48.6883C153.014 51.3833 149.955 53.0907 146.446 53.0907C140.689 53.0007 136.461 48.059 136.461 41.9497ZM154.633 41.9497C154.633 36.9183 151.394 33.8636 147.436 33.8636C143.478 33.8636 140.239 36.9183 140.239 41.9497C140.239 46.981 143.478 50.0356 147.436 50.0356C151.394 50.0356 154.633 46.981 154.633 41.9497Z" fill="white"/>
<path d="M166.534 33.8909H161.754V31.4095H166.534V25.7377H170.303V31.4095H175.175V33.8909H170.303V52.0585H166.534V33.8909Z" fill="white"/>
<path d="M177.24 41.9497C177.24 35.8402 181.368 30.8986 186.988 30.8986C190.325 30.8986 193.311 32.6057 195.067 35.3011L195.243 31.5276H198.404V52.4618H195.243L195.067 48.6883C193.399 51.3833 190.413 53.0907 186.988 53.0907C181.28 53.0007 177.24 48.059 177.24 41.9497ZM194.979 41.9497C194.979 36.9183 191.818 33.8636 187.954 33.8636C184.09 33.8636 180.928 36.9183 180.928 41.9497C180.928 46.981 184.09 50.0356 187.954 50.0356C191.73 50.0356 194.979 46.981 194.979 41.9497Z" fill="white"/>
<path fill-rule="evenodd" clip-rule="evenodd" d="M18.2823 0.377791L19.2846 0.24353L44.6751 14.7804L70.0469 3.42956L71.0368 4.70757L56.3235 23.1429L55.9733 23.3999L45.9248 27.2843V44.7475L45.6815 45.3351L27.0457 64L25.625 63.4124V34.4005L0.285813 19.893L0.110352 18.5837L18.2823 0.377791ZM27.2889 34.4885V61.4016L44.2609 44.4036V27.9275L27.2889 34.4885ZM45.9248 25.5007L55.163 21.9294L67.5999 6.34676L45.9248 16.0439V25.5007ZM43.5451 16.0504L19.0103 2.00348L2.05598 18.9895L26.3248 32.8841L43.5451 16.0504ZM29.9344 31.6822L44.2609 26.1439V17.6775L29.9344 31.6822Z" fill="#E32212"/>
</g>
<defs>
<clipPath id="clip0">
<rect width="198.649" height="64" fill="white"/>
</clipPath>
</defs>
</svg>
